<?xml version="1.0" encoding="UTF-8" standalone="no"?>
<!-- Created with Inkscape (http://www.inkscape.org/) -->

<svg
   width="134.78841mm"
   height="138.89641mm"
   viewBox="0 0 134.78841 138.89641"
   version="1.1"
   id="svg1"
   xml:space="preserve"
   xmlns="http://www.w3.org/2000/svg"
   xmlns:svg="http://www.w3.org/2000/svg"><defs
     id="defs1"><rect
       x="1632"
       y="780"
       width="1684"
       height="364"
       id="rect22" /><rect
       x="1632"
       y="780"
       width="1684"
       height="364"
       id="rect22-2" /><rect
       x="1632"
       y="780"
       width="1684"
       height="364"
       id="rect22-2-3" /></defs><g
     id="layer1"
     transform="translate(97.92806,97.464515)"><g
       id="g59"
       transform="translate(-272.49319,78.699184)"><path
         style="fill:#90a3a9;fill-opacity:1;stroke:#90a3a9;stroke-width:1;stroke-linecap:round;stroke-linejoin:round;stroke-dasharray:none;stroke-opacity:1"
         d="m 195.58755,-78.79806 -20.52248,19.89365 20.10795,2.48678 0.20742,18.6504 27.77785,-25.69608 z"
         id="path37-6" /><path
         style="fill:#90a3a9;fill-opacity:1;stroke:#90a3a9;stroke-width:1;stroke-linecap:round;stroke-linejoin:round;stroke-dasharray:none;stroke-opacity:1"
         d="m 288.33112,-80.84624 20.52248,19.89365 -20.10795,2.48678 -0.20742,18.65039 -27.77784,-25.69607 z"
         id="path37-8-9" /><path
         style="fill:#ccd5da;fill-opacity:1;stroke:#ccd5da;stroke-width:0.451333;stroke-linecap:round;stroke-linejoin:round;stroke-dasharray:none;stroke-opacity:1"
         id="path34-9-4"
         d="m -773.10511,-827.09032 c -0.80422,0.7723 -20.08567,7.37575 -21.10977,7.08943 -1.02409,-0.28632 -15.12953,-14.92161 -15.38623,-15.95824 -0.25669,-1.03664 5.22292,-20.2112 5.95856,-21.03548 0.73565,-0.82428 19.71023,-5.29736 20.78455,-5.05863 1.07432,0.23872 15.04101,13.6521 15.26869,14.71079 0.22768,1.05869 -4.71157,19.47983 -5.5158,20.25213 z"
         transform="matrix(2.8007253,-0.78018535,0.78598035,2.7765166,3109.5194,1607.2199)" /><path
         style="fill:#90a3a9;fill-opacity:1;stroke:#90a3a9;stroke-width:0.451333;stroke-linecap:round;stroke-linejoin:round;stroke-dasharray:none;stroke-opacity:1"
         id="path34-4"
         d="m -773.10511,-827.09032 c -0.80422,0.7723 -20.08567,7.37575 -21.10977,7.08943 -1.02409,-0.28632 -15.12953,-14.92161 -15.38623,-15.95824 -0.25669,-1.03664 5.22292,-20.2112 5.95856,-21.03548 0.73565,-0.82428 19.71023,-5.29736 20.78455,-5.05863 1.07432,0.23872 15.04101,13.6521 15.26869,14.71079 0.22768,1.05869 -4.71157,19.47983 -5.5158,20.25213 z"
         transform="matrix(2.2423174,-0.58879738,0.59156307,2.2314007,2505.76,1299.6794)" /><path
         style="fill:#ffffff;fill-opacity:1;stroke:#fdfcf1;stroke-width:0.225667;stroke-linecap:round;stroke-linejoin:round;stroke-dasharray:none;stroke-opacity:1"
         id="path35-6"
         d="m -776.605,-840.49579 -7.71386,3.14305 -2.01476,8.08227 -3.14304,-7.71386 -8.08228,-2.01475 7.71386,-3.14305 2.01476,-8.08227 3.14304,7.71386 z"
         transform="matrix(0.80462009,0,0,0.8656167,903.64273,574.02146)" /><path
         style="fill:#ffffff;fill-opacity:1;stroke:#fdfcf1;stroke-width:0.225667;stroke-linecap:round;stroke-linejoin:round;stroke-dasharray:none;stroke-opacity:1"
         id="path35-8-3"
         d="m -776.605,-840.49579 -7.71386,3.14305 -2.01476,8.08227 -3.14304,-7.71386 -8.08228,-2.01475 7.71386,-3.14305 2.01476,-8.08227 3.14304,7.71386 z"
         transform="matrix(0.66548476,0,0,0.78844456,728.97597,516.29706)" /><path
         style="fill:#ffffff;fill-opacity:1;stroke:#fdfcf1;stroke-width:0.225667;stroke-linecap:round;stroke-linejoin:round;stroke-dasharray:none;stroke-opacity:1"
         id="path35-8-8-2"
         d="m -776.605,-840.49579 -7.71386,3.14305 -2.01476,8.08227 -3.14304,-7.71386 -8.08228,-2.01475 7.71386,-3.14305 2.01476,-8.08227 3.14304,7.71386 z"
         transform="matrix(0.92413468,0,0,0.92318831,929.04977,704.81526)" /><path
         style="fill:#ffffff;fill-opacity:1;stroke:#fdfcf1;stroke-width:0.225667;stroke-linecap:round;stroke-linejoin:round;stroke-dasharray:none;stroke-opacity:1"
         id="path35-8-8-0-4"
         d="m -776.605,-840.49579 -7.71386,3.14305 -2.01476,8.08227 -3.14304,-7.71386 -8.08228,-2.01475 7.71386,-3.14305 2.01476,-8.08227 3.14304,7.71386 z"
         transform="matrix(0.48791036,0,0,0.63165887,648.70905,452.16395)" /><g
         id="g53"
         transform="translate(34.963983,6.7842455)"><path
           style="fill:#adc4c6;fill-opacity:1;stroke:#adc4c6;stroke-width:0.865448;stroke-linecap:round;stroke-linejoin:round;stroke-dasharray:none;stroke-opacity:1"
           id="path33-8"
           d="m -783.25951,-840.31151 -4.38514,2.30309 0.3495,4.9408 -3.54545,-3.45882 -4.59098,1.85918 2.19392,-4.44076 -3.18687,-3.79176 4.90137,0.71428 2.62138,-4.20262 0.83529,4.88221 z"
           transform="matrix(1.0779858,2.1529163,-2.1551276,1.0768797,-726.50838,2474.9606)" /><path
           style="fill:#e7eff2;fill-opacity:1;stroke:none;stroke-width:0.5;stroke-linecap:round;stroke-linejoin:round;stroke-dasharray:none;stroke-opacity:1"
           d="m 226.09619,-137.3709 4.89693,6.20427 0.2046,-17.15007 c 0.009,0.0152 -0.37239,-0.0624 -0.56714,0.44091 -0.17878,0.46227 -0.58556,1.35092 -0.67648,1.58089 -0.0909,0.22996 -3.88526,8.94112 -3.85791,8.924 z"
           id="path46-4" /><path
           style="fill:#e7eff2;fill-opacity:1;stroke:none;stroke-width:0.5;stroke-linecap:round;stroke-linejoin:round;stroke-dasharray:none;stroke-opacity:1"
           d="m 236.09041,-137.05066 -5.09977,5.88534 17.08269,-4.3866 c -0.0117,0.013 -0.0548,-0.37358 -0.5936,-0.40458 -0.49482,-0.0284 -1.4654,-0.14302 -1.71218,-0.15904 -0.24676,-0.016 -9.70182,-0.9559 -9.67714,-0.93512 z"
           id="path46-6-5" /><path
           style="fill:#e7eff2;fill-opacity:1;stroke:none;stroke-width:0.5;stroke-linecap:round;stroke-linejoin:round;stroke-dasharray:none;stroke-opacity:1"
           d="m 238.68501,-127.44152 -7.69424,-3.72231 9.77741,15.69438 c 0.0951,0.0281 0.52149,-0.48215 0.38258,-1.00951 -0.12624,-0.47928 -0.32206,-1.43671 -0.38396,-1.67613 -0.0619,-0.23941 -2.06977,-9.31638 -2.08179,-9.28643 z"
           id="path46-6-0-8" /><path
           style="fill:#e7eff2;fill-opacity:1;stroke:none;stroke-width:0.5;stroke-linecap:round;stroke-linejoin:round;stroke-dasharray:none;stroke-opacity:1"
           d="m 230.38219,-121.96832 0.63521,-9.1892 -11.50196,14.83529 c 0.35146,0.29752 0.8181,0.28294 1.17999,0.0965 0.4406,-0.22699 1.26708,-0.74992 1.47569,-0.88271 0.2086,-0.13279 8.24347,-4.85763 8.21127,-4.85982 z"
           id="path46-6-0-0-0" /><path
           style="fill:#e7eff2;fill-opacity:1;stroke:none;stroke-width:0.5;stroke-linecap:round;stroke-linejoin:round;stroke-dasharray:none;stroke-opacity:1"
           d="m 222.59843,-128.16719 7.79942,-3.33547 -16.5305,-5.29416 c -0.0165,-0.005 -0.20415,0.70502 0.19299,1.07048 0.25917,0.23849 0.91567,0.85697 1.108,1.01242 0.1923,0.15544 7.4383,6.57814 7.43012,6.54692 z"
           id="path46-6-0-0-5-9" /></g><g
         id="g54"
         transform="translate(-13.470384,-14.218739)"><path
           style="fill:#adc4c6;fill-opacity:1;stroke:#adc4c6;stroke-width:0.865448;stroke-linecap:round;stroke-linejoin:round;stroke-dasharray:none;stroke-opacity:1"
           id="path33-8-3"
           d="m -783.25951,-840.31151 -4.38514,2.30309 0.3495,4.9408 -3.54545,-3.45882 -4.59098,1.85918 2.19392,-4.44076 -3.18687,-3.79176 4.90137,0.71428 2.62138,-4.20262 0.83529,4.88221 z"
           transform="matrix(1.0779858,2.1529163,-2.1551276,1.0768797,-722.45593,2514.6646)" /><path
           style="fill:#e7eff2;fill-opacity:1;stroke:none;stroke-width:0.5;stroke-linecap:round;stroke-linejoin:round;stroke-dasharray:none;stroke-opacity:1"
           d="m 230.14864,-97.666929 4.89693,6.204267 0.2046,-17.150068 c 0.009,0.0152 -0.37239,-0.0624 -0.56714,0.44091 -0.17878,0.46227 -0.58556,1.35092 -0.67648,1.58089 -0.0909,0.22996 -3.88526,8.941121 -3.85791,8.924001 z"
           id="path46-4-0" /><path
           style="fill:#e7eff2;fill-opacity:1;stroke:none;stroke-width:0.5;stroke-linecap:round;stroke-linejoin:round;stroke-dasharray:none;stroke-opacity:1"
           d="m 240.14286,-97.346689 -5.09977,5.885337 17.08269,-4.386597 c -0.0117,0.013 -0.0548,-0.37358 -0.5936,-0.40458 -0.49482,-0.0284 -1.4654,-0.14302 -1.71218,-0.15904 -0.24676,-0.016 -9.70182,-0.9559 -9.67714,-0.93512 z"
           id="path46-6-5-9" /><path
           style="fill:#e7eff2;fill-opacity:1;stroke:none;stroke-width:0.5;stroke-linecap:round;stroke-linejoin:round;stroke-dasharray:none;stroke-opacity:1"
           d="m 242.73746,-87.737552 -7.69424,-3.72231 9.77741,15.69438 c 0.0951,0.0281 0.52149,-0.48215 0.38258,-1.00951 -0.12624,-0.47928 -0.32206,-1.43671 -0.38396,-1.67613 -0.0619,-0.23941 -2.06977,-9.31638 -2.08179,-9.28643 z"
           id="path46-6-0-8-6" /><path
           style="fill:#e7eff2;fill-opacity:1;stroke:none;stroke-width:0.5;stroke-linecap:round;stroke-linejoin:round;stroke-dasharray:none;stroke-opacity:1"
           d="m 234.43464,-82.264352 0.63521,-9.1892 -11.50196,14.83529 c 0.35146,0.29752 0.8181,0.28294 1.17999,0.0965 0.4406,-0.22699 1.26708,-0.74992 1.47569,-0.88271 0.2086,-0.13279 8.24347,-4.85763 8.21127,-4.85982 z"
           id="path46-6-0-0-0-8" /><path
           style="fill:#e7eff2;fill-opacity:1;stroke:none;stroke-width:0.5;stroke-linecap:round;stroke-linejoin:round;stroke-dasharray:none;stroke-opacity:1"
           d="m 226.65088,-88.463222 7.79942,-3.335467 -16.5305,-5.29416 c -0.0165,-0.005 -0.20415,0.70502 0.19299,1.07048 0.25917,0.23849 0.91567,0.85697 1.108,1.01242 0.1923,0.15544 7.4383,6.578137 7.43012,6.546917 z"
           id="path46-6-0-0-5-9-3" /></g></g></g></svg>
