<?xml version="1.0" encoding="UTF-8" standalone="no"?>
<!-- Created with Inkscape (http://www.inkscape.org/) -->

<svg
   width="112.50201mm"
   height="126.92316mm"
   viewBox="0 0 112.50201 126.92318"
   version="1.1"
   id="svg1"
   xml:space="preserve"
   xmlns="http://www.w3.org/2000/svg"
   xmlns:svg="http://www.w3.org/2000/svg"><defs
     id="defs1"><rect
       x="1632"
       y="780"
       width="1684"
       height="364"
       id="rect22" /><rect
       x="1632"
       y="780"
       width="1684"
       height="364"
       id="rect22-2" /><rect
       x="1632"
       y="780"
       width="1684"
       height="364"
       id="rect22-2-3" /></defs><g
     id="layer2"
     style="display:inline"
     transform="translate(77.787511,122.2375)"><g
       id="g71"
       transform="translate(31.71848,-165.0999)"><path
         style="fill:#6d6d6d;fill-opacity:1;stroke:#6d6d6d;stroke-width:0.451333;stroke-linecap:round;stroke-linejoin:round;stroke-dasharray:none;stroke-opacity:1"
         id="path34-9-43"
         d="m -773.10511,-827.09032 c -0.80422,0.7723 -20.08567,7.37575 -21.10977,7.08943 -1.02409,-0.28632 -15.12953,-14.92161 -15.38623,-15.95824 -0.25669,-1.03664 5.22292,-20.2112 5.95856,-21.03548 0.73565,-0.82428 19.71023,-5.29736 20.78455,-5.05863 1.07432,0.23872 15.04101,13.6521 15.26869,14.71079 0.22768,1.05869 -4.71157,19.47983 -5.5158,20.25213 z"
         transform="matrix(2.8007253,-0.78018535,0.78598035,2.7765166,2816.7015,1826.246)" /><path
         style="fill:#191919;fill-opacity:1;stroke:#191919;stroke-width:0.451333;stroke-linecap:round;stroke-linejoin:round;stroke-dasharray:none;stroke-opacity:1"
         id="path34-1"
         d="m -773.10511,-827.09032 c -0.80422,0.7723 -20.08567,7.37575 -21.10977,7.08943 -1.02409,-0.28632 -15.12953,-14.92161 -15.38623,-15.95824 -0.25669,-1.03664 5.22292,-20.2112 5.95856,-21.03548 0.73565,-0.82428 19.71023,-5.29736 20.78455,-5.05863 1.07432,0.23872 15.04101,13.6521 15.26869,14.71079 0.22768,1.05869 -4.71157,19.47983 -5.5158,20.25213 z"
         transform="matrix(2.2423174,-0.58879738,0.59156307,2.2314007,2212.9422,1518.7055)" /><path
         style="fill:#ffffff;fill-opacity:1;stroke:#fdfcf1;stroke-width:0.225667;stroke-linecap:round;stroke-linejoin:round;stroke-dasharray:none;stroke-opacity:1"
         id="path35-4"
         d="m -776.605,-840.49579 -7.71386,3.14305 -2.01476,8.08227 -3.14304,-7.71386 -8.08228,-2.01475 7.71386,-3.14305 2.01476,-8.08227 3.14304,7.71386 z"
         transform="matrix(0.80462009,0,0,0.8656167,610.82494,793.04769)" /><path
         style="fill:#ffffff;fill-opacity:1;stroke:#fdfcf1;stroke-width:0.225667;stroke-linecap:round;stroke-linejoin:round;stroke-dasharray:none;stroke-opacity:1"
         id="path35-8-84"
         d="m -776.605,-840.49579 -7.71386,3.14305 -2.01476,8.08227 -3.14304,-7.71386 -8.08228,-2.01475 7.71386,-3.14305 2.01476,-8.08227 3.14304,7.71386 z"
         transform="matrix(0.66548476,0,0,0.78844456,436.15818,735.32328)" /><path
         style="fill:#ffffff;fill-opacity:1;stroke:#fdfcf1;stroke-width:0.225667;stroke-linecap:round;stroke-linejoin:round;stroke-dasharray:none;stroke-opacity:1"
         id="path35-8-8-0-0"
         d="m -776.605,-840.49579 -7.71386,3.14305 -2.01476,8.08227 -3.14304,-7.71386 -8.08228,-2.01475 7.71386,-3.14305 2.01476,-8.08227 3.14304,7.71386 z"
         transform="matrix(0.48791036,0,0,0.63165887,355.89126,671.1902)" /><path
         style="fill:#6d6d6d;fill-opacity:1;stroke:#6d6d6d;stroke-width:0.451333;stroke-linecap:round;stroke-linejoin:round;stroke-dasharray:none;stroke-opacity:1"
         id="path33-6"
         d="m -783.25951,-840.31151 -4.38514,2.30309 0.3495,4.9408 -3.54545,-3.45882 -4.59098,1.85918 2.19392,-4.44076 -3.18687,-3.79176 4.90137,0.71428 2.62138,-4.20262 0.83529,4.88221 z"
         transform="matrix(2.0670753,4.1283003,-4.1325322,2.0649585,-1889.2534,5102.2636)" /></g></g></svg>
